<mxfile host="app.diagrams.net" modified="2024-01-27T22:37:21.323Z" agent="Mozilla/5.0 (Windows NT 10.0; Win64; x64) AppleWebKit/537.36 (KHTML, like Gecko) Chrome/121.0.0.0 Safari/537.36" version="23.0.2" etag="PNO7bMcU6tNufE188GLr" type="github">
  <diagram name="PÃ¡gina-1" id="HYcb1AwnSfnzTT09hK9X">
    <mxGraphModel>
      <root>
        <mxCell id="0" />
        <mxCell id="1" parent="0" />
      </root>
    </mxGraphModel>
  </diagram>
</mxfile>
